<?xml version="1.0" encoding="UTF-8"?>
<!DOCTYPE svg PUBLIC "-//W3C//DTD SVG 1.1//EN" "http://www.w3.org/Graphics/SVG/1.1/DTD/svg11.dtd">
<!-- Creator: CorelDRAW -->
<svg xmlns="http://www.w3.org/2000/svg" xml:space="preserve" width="4.20222in" height="4.20223in" version="1.1" style="shape-rendering:geometricPrecision; text-rendering:geometricPrecision; image-rendering:optimizeQuality; fill-rule:evenodd; clip-rule:evenodd"
viewBox="0 0 239.21 239.22"
 xmlns:xlink="http://www.w3.org/1999/xlink"
 xmlns:xodm="http://www.corel.com/coreldraw/odm/2003">
 <defs>
  <style type="text/css">
   <![CDATA[
    .fil0 {fill:#FF6600}
   ]]>
  </style>
 </defs>
 <g id="Layer_x0020_1">
  <metadata id="CorelCorpID_0Corel-Layer"/>
  <path class="fil0" d="M5.18 198.41l30.45 0c2.85,0 5.17,2.32 5.17,5.17l0 30.45c-0,4.61 -5.57,6.92 -8.83,3.66l-30.45 -30.45c-3.26,-3.26 -0.95,-8.83 3.66,-8.83zm182.54 -198.41l-134.3 0c-6.41,-0 -11.93,2.28 -16.46,6.82l-30.15 30.15c-4.53,4.53 -6.82,10.05 -6.82,16.46l0 123.58 33.94 -0.03 97.71 -97.71 -62.79 1.62 0 -8.01 29.4 -27.86 81.64 0c7.88,0 14.29,6.4 14.29,14.29l0 81.64 -27.86 29.4 -8.01 0 1.62 -62.79 -97.71 97.71 -0.03 33.94 123.58 0c6.41,0 11.93,-2.29 16.46,-6.82l30.15 -30.15c4.53,-4.53 6.82,-10.05 6.82,-16.46l0 -134.3c0,-6.41 -2.29,-11.93 -6.82,-16.46 -9.4,-9.4 -18.8,-18.8 -28.2,-28.2 -4.53,-4.53 -10.05,-6.82 -16.46,-6.82z"/>
 </g>
</svg>
